<svg xmlns="http://www.w3.org/2000/svg" xmlns:xlink="http://www.w3.org/1999/xlink" aria-hidden="true" role="img" class="iconify iconify--logos" width="31.88" height="32" preserveAspectRatio="xMidYMid meet" viewBox="0 0 256 257"><defs><linearGradient id="IconifyId1813088fe1fbc01fb466" x1="-.828%" x2="57.636%" y1="7.652%" y2="78.411%"><stop offset="0%" stop-color="#41D1FF"></stop><stop offset="100%" stop-color="#BD34FE"></stop></linearGradient><linearGradient id="IconifyId1813088fe1fbc01fb467" x1="43.376%" x2="50.316%" y1="2.242%" y2="89.03%"><stop offset="0%" stop-color="#FFEA83"></stop><stop offset="8.333%" stop-color="#FFDD35"></stop><stop offset="100%" stop-color="#FFA800"></stop></linearGradient></defs><path fill="url(#IconifyId1813088fe1fbc01fb466)" d="M255.153 37.938L134.897 252.976c-2.483 4.44-8.862 4.466-11.382.048L.875 37.958c-2.746-4.814 1.371-10.646 6.827-9.67l120.385 21.517a6.537 6.537 0 0 0 2.322-.004l117.867-21.483c5.438-.991 9.574 4.796 6.877 9.62Z"></path><path fill="url(#IconifyId1813088fe1fbc01fb467)" d="M185.432.063L96.44 17.501a3.268 3.268 0 0 0-2.634 3.014l-5.474 92.456a3.268 3.268 0 0 0 3.997 3.378l24.777-9.758c2.318-.893 4.69 1.038 4.49 3.508l-7.127 69.045c-.198 2.514 2.3 4.488 4.81 3.78l15.304-4.649c2.512-.706 4.76 1.4 4.396 3.941l-8.419 57.892c-.36 2.484 2.09 4.52 4.568 3.78l29.224-9.967c2.478-.74 4.76 1.36 4.332 3.84l-11.698 68.176c-.428 2.48 2.073 4.57 4.534 3.734l54.701-23.141c2.44-.83 2.905-4.143.733-5.97l-38.01-32.442c-1.763-1.505-1.313-4.188.867-4.936l21.102-7.483c2.182-.773 2.38-3.942.352-5.039l-26.503-14.231c-2.028-1.09-1.913-3.882.243-4.8l29.443-11.433c2.155-.915 2.049-3.97-.193-4.711l-78.993-25.684c-2.242-.728-2.072-3.96.324-4.475l58.102-15.973c2.396-.515 2.485-3.694.177-4.405l-31.007-9.69c-2.308-.712-2.084-3.89.422-4.298l88.721-19.263c2.506-.408 3.01-3.666.79-5.324L188.16.574c-2.22-1.657-5.577-.999-6.728 1.489Z"></path></svg> 